<svg width="41" height="41" viewBox="0 0 41 41" fill="none" xmlns="http://www.w3.org/2000/svg">
<g id="chip-credit-svgrepo-com 1" clip-path="url(#clip0_1_33)">
<rect id="Rectangle 6" x="1.71643" y="5.0509" width="38.24" height="31.2873" rx="5" fill="#D9D9D9" fill-opacity="0.1"/>
<path id="chip--credit_1_" d="M37.0775 36.1361H4.59524C2.96988 36.1361 1.64685 34.8131 1.64685 33.1877V8.20138C1.64685 6.57602 2.96988 5.25299 4.59524 5.25299H37.0775C38.7041 5.25299 40.0259 6.57602 40.0259 8.20138V33.1877C40.0259 34.8144 38.7041 36.1361 37.0775 36.1361ZM28.782 35.2366H37.0775C38.2069 35.2366 39.1264 34.3184 39.1264 33.1877V28.6402H28.782V35.2366ZM13.7902 35.2366H27.8825V13.1987C27.8825 12.95 28.0837 12.7489 28.3323 12.7489H39.1264V8.20138C39.1264 7.072 38.2081 6.1525 37.0775 6.1525H13.7902V35.2366ZM2.54636 28.6402V33.1877C2.54636 34.3171 3.46586 35.2366 4.59524 35.2366H12.8907V28.6402H2.54636ZM28.782 27.7407H39.1251V21.1443H28.782V27.7407ZM2.54636 27.7407H12.8907V21.1443H2.54636V27.7407ZM28.782 20.2448H39.1251V13.6484H28.782V20.2448ZM2.54636 20.2448H12.8907V13.6484H2.54636V20.2448ZM2.54636 12.7489H12.8907V6.1525H4.59524C3.46586 6.1525 2.54636 7.072 2.54636 8.20138V12.7489Z" fill="#5F5F5F"/>
</g>
<defs>
<clipPath id="clip0_1_33">
<rect width="39.9782" height="39.9782" fill="white" transform="translate(0.84729 0.705444)"/>
</clipPath>
</defs>
</svg>
