<svg width="24" height="24" viewBox="0 0 24 24" fill="none" xmlns="http://www.w3.org/2000/svg">
<g id="Gear">
<g id="SVGRepo_iconCarrier">
<path id="Vector" fill-rule="evenodd" clip-rule="evenodd" d="M12 16C9.79084 16 7.99998 14.2091 7.99998 12C7.99998 9.79082 9.79084 8.00002 12 8.00002C14.2091 8.00002 16 9.79082 16 12C16 14.2091 14.2091 16 12 16ZM9.99998 12C9.99998 13.1045 10.8954 14 12 14C13.1046 14 14 13.1045 14 12C14 10.8954 13.1046 10 12 10C10.8954 10 9.99998 10.8954 9.99998 12Z" fill="#1F1F1F"/>
<path id="Vector_2" fill-rule="evenodd" clip-rule="evenodd" d="M12 16C9.79084 16 7.99998 14.2091 7.99998 12C7.99998 9.79082 9.79084 8.00002 12 8.00002C14.2091 8.00002 16 9.79082 16 12C16 14.2091 14.2091 16 12 16ZM9.99998 12C9.99998 13.1045 10.8954 14 12 14C13.1046 14 14 13.1045 14 12C14 10.8954 13.1046 10 12 10C10.8954 10 9.99998 10.8954 9.99998 12Z" fill="#1F1F1F"/>
<path id="Vector_3" fill-rule="evenodd" clip-rule="evenodd" d="M10.7673 22.9829C10.9925 23.0002 11.2454 23.0001 11.4516 23H12.5484C12.7546 23.0001 13.0075 23.0002 13.2327 22.9829C13.4989 22.9625 13.8678 22.9106 14.2634 22.7306C14.7635 22.5031 15.1915 22.1426 15.5007 21.6885C15.7454 21.3292 15.8592 20.9745 15.9246 20.7157C15.9799 20.4967 16.0228 20.2475 16.0577 20.0443L16.1993 19.2236L16.2021 19.2221C16.2369 19.2029 16.2715 19.1834 16.306 19.1637L16.3086 19.1623L17.2455 19.5013C17.4356 19.5702 17.6693 19.6549 17.8835 19.7146C18.1371 19.7852 18.4954 19.8611 18.9216 19.8297C19.4614 19.79 19.9803 19.605 20.4235 19.2944C20.7734 19.049 21.0029 18.7636 21.1546 18.5485C21.2829 18.3667 21.4103 18.1533 21.514 17.9797L22.0158 17.14C22.1256 16.9565 22.2594 16.7329 22.3627 16.5247C22.4843 16.2797 22.6328 15.9253 22.6777 15.4793C22.7341 14.9178 22.6311 14.3517 22.3803 13.8461C22.1811 13.4446 21.9171 13.1653 21.7169 12.9788C21.5469 12.8205 21.3428 12.6583 21.1755 12.5254L20.5 12L21.1755 11.4746C21.3428 11.3416 21.5469 11.1795 21.7169 11.0211C21.9171 10.8347 22.1811 10.5554 22.3802 10.1539C22.631 9.6483 22.7341 9.0822 22.6776 8.5206C22.6328 8.0747 22.4842 7.7203 22.3626 7.4752C22.2593 7.2671 22.1255 7.0434 22.0158 6.86L21.5138 6.0201C21.4102 5.8465 21.2828 5.6332 21.1546 5.4515C21.0028 5.2363 20.7734 4.9509 20.4234 4.7056C19.9803 4.3949 19.4613 4.2099 18.9216 4.1702C18.4954 4.1388 18.1371 4.2148 17.8835 4.2854C17.6692 4.3451 17.4355 4.4297 17.2454 4.4986L16.3085 4.8377L16.306 4.8362C16.2715 4.8165 16.2369 4.7971 16.2021 4.7778L16.1993 4.7763L16.0577 3.9557C16.0228 3.7525 15.9799 3.5033 15.9246 3.2843C15.8592 3.0255 15.7454 2.6707 15.5007 2.3114C15.1915 1.8573 14.7635 1.4968 14.2634 1.2693C13.8678 1.0893 13.4989 1.0374 13.2327 1.017C13.0074 0.9998 12.7546 0.999899 12.5484 1H11.4516C11.2454 0.999899 10.9925 0.9998 10.7673 1.017C10.5011 1.0374 10.1322 1.0893 9.73655 1.2693C9.23648 1.4968 8.80849 1.8573 8.49926 2.3114C8.25461 2.6707 8.14077 3.0255 8.07542 3.2843C8.02011 3.5033 7.97723 3.7525 7.94225 3.9557L7.80068 4.7763L7.79791 4.7778C7.7631 4.7971 7.72845 4.8165 7.69396 4.8363L7.69142 4.8377L6.75458 4.4986C6.5645 4.4298 6.33078 4.3451 6.11651 4.2854C5.86288 4.2148 5.50463 4.1389 5.07841 4.1702C4.53866 4.2099 4.01971 4.3949 3.57654 4.7056C3.2266 4.9509 2.99714 5.2363 2.84539 5.4515C2.71718 5.6332 2.58974 5.8466 2.4861 6.0202L1.98418 6.86C1.87447 7.0434 1.74067 7.2671 1.63737 7.4752C1.51575 7.7203 1.36719 8.0747 1.32235 8.5206C1.26588 9.0822 1.36897 9.6483 1.61976 10.1539C1.81892 10.5554 2.08289 10.8347 2.28308 11.0211C2.45312 11.1795 2.65717 11.3416 2.82449 11.4746L3.47844 11.9946V12.0053L2.82445 12.5254C2.65712 12.6583 2.45308 12.8205 2.28304 12.9788C2.08285 13.1653 1.81888 13.4446 1.61972 13.8461C1.36893 14.3517 1.26584 14.9178 1.3223 15.4793C1.36714 15.9252 1.51571 16.2797 1.63732 16.5247C1.74062 16.7328 1.87443 16.9565 1.98414 17.1399L2.48605 17.9797C2.58969 18.1533 2.71714 18.3667 2.84534 18.5485C2.9971 18.7636 3.22655 19.049 3.5765 19.2943C4.01966 19.605 4.53862 19.79 5.07837 19.8297C5.50458 19.8611 5.86284 19.7852 6.11646 19.7146C6.33072 19.6549 6.56444 19.5702 6.75451 19.5013L7.69141 19.1622L7.69394 19.1637C7.72844 19.1834 7.7631 19.2029 7.79791 19.2221L7.80068 19.2236L7.94225 20.0443C7.97723 20.2475 8.02011 20.4967 8.07542 20.7157C8.14077 20.9745 8.25461 21.3292 8.49926 21.6885C8.80849 22.1426 9.23648 22.5031 9.73655 22.7306C10.1322 22.9106 10.5011 22.9625 10.7673 22.9829ZM14.0938 19.6637C14.011 20.1437 13.9696 20.3836 13.8476 20.5628C13.7445 20.7142 13.6019 20.8344 13.4352 20.9102C13.2378 21 12.9943 21 12.5073 21H11.4927C11.0057 21 10.7621 21 10.5648 20.9102C10.3981 20.8344 10.2555 20.7142 10.1524 20.5628C10.0304 20.3836 9.98895 20.1437 9.90615 19.6637L9.75012 18.7594C9.69445 18.4367 9.66662 18.2753 9.60765 18.1513C9.54975 18.0295 9.50241 17.963 9.40636 17.8683C9.30853 17.772 9.12753 17.6719 8.76554 17.4718C8.73884 17.457 8.71227 17.4421 8.68582 17.427C8.33956 17.2292 8.16643 17.1303 8.03785 17.0969C7.91158 17.064 7.83293 17.0572 7.70289 17.068C7.57049 17.0791 7.42216 17.1327 7.12551 17.2401L6.11194 17.6069C5.66271 17.7695 5.43809 17.8508 5.22515 17.8351C5.04524 17.8219 4.87225 17.7602 4.72453 17.6567C4.5497 17.5341 4.42715 17.3291 4.18206 16.919L3.72269 16.1503C3.46394 15.7174 3.33456 15.5009 3.31227 15.2792C3.29345 15.092 3.32781 14.9033 3.41141 14.7348C3.51042 14.5352 3.7078 14.3782 4.10256 14.0643L4.82745 13.4878C5.07927 13.2876 5.20518 13.1874 5.28411 13.0801C5.36944 12.964 5.40583 12.8886 5.44354 12.7496C5.47844 12.621 5.47844 12.414 5.47844 12C5.47844 11.586 5.47844 11.379 5.44354 11.2503C5.40582 11.1113 5.36944 11.0359 5.28413 10.9199C5.20518 10.8125 5.07927 10.7124 4.82743 10.5121L4.10261 9.9357C3.70785 9.6217 3.51047 9.4648 3.41145 9.2651C3.32785 9.0966 3.29349 8.9079 3.31231 8.7207C3.33461 8.499 3.46398 8.2826 3.72273 7.8496L4.1821 7.081C4.4272 6.6709 4.54974 6.4658 4.72457 6.3433C4.8723 6.2397 5.04528 6.1781 5.2252 6.1648C5.43813 6.1492 5.66275 6.2305 6.11199 6.393L7.12553 6.7598C7.42216 6.8672 7.5705 6.9209 7.7029 6.9319C7.83294 6.9427 7.91159 6.936 8.03786 6.9031C8.16644 6.8696 8.33956 6.7707 8.68582 6.573C8.71228 6.5579 8.73885 6.5429 8.76554 6.5282C9.12753 6.3281 9.30853 6.228 9.40635 6.1316C9.50241 6.037 9.54975 5.9704 9.60765 5.8486C9.66662 5.7246 9.69445 5.5633 9.75012 5.2406L9.90615 4.3363C9.98895 3.8563 10.0304 3.6163 10.1524 3.4371C10.2555 3.2858 10.3981 3.1656 10.5648 3.0898C10.7621 3 11.0057 3 11.4927 3H12.5073C12.9943 3 13.2378 3 13.4352 3.0898C13.6019 3.1656 13.7445 3.2858 13.8476 3.4371C13.9696 3.6163 14.011 3.8563 14.0938 4.3363L14.2499 5.2406C14.3055 5.5633 14.3334 5.7246 14.3923 5.8486C14.4502 5.9704 14.4976 6.037 14.5936 6.1316C14.6915 6.228 14.8725 6.3281 15.2344 6.5282C15.2611 6.5429 15.2877 6.5579 15.3141 6.573C15.6604 6.7707 15.8335 6.8696 15.9621 6.9031C16.0884 6.936 16.167 6.9427 16.2971 6.9319C16.4295 6.9209 16.5778 6.8672 16.8744 6.7598L17.888 6.393C18.3372 6.2304 18.5619 6.1491 18.7748 6.1648C18.9547 6.1781 19.1277 6.2397 19.2754 6.3433C19.4502 6.4658 19.5728 6.6709 19.8179 7.081L20.2773 7.8496C20.536 8.2825 20.6654 8.499 20.6877 8.7207C20.7065 8.9079 20.6721 9.0966 20.5885 9.2651C20.4895 9.4647 20.2921 9.6217 19.8974 9.9357L19.1726 10.5121C18.9207 10.7124 18.7948 10.8125 18.7159 10.9199C18.6306 11.0359 18.5942 11.1113 18.5564 11.2503C18.5215 11.3789 18.5215 11.586 18.5215 12C18.5215 12.414 18.5215 12.621 18.5564 12.7496C18.5942 12.8886 18.6306 12.964 18.7159 13.0801C18.7948 13.1874 18.9207 13.2876 19.1725 13.4878L19.8974 14.0643C20.2922 14.3782 20.4896 14.5352 20.5886 14.7348C20.6722 14.9034 20.7065 15.092 20.6877 15.2792C20.6654 15.5009 20.5361 15.7174 20.2773 16.1504L19.8179 16.919C19.5728 17.3291 19.4503 17.5341 19.2755 17.6567C19.1277 17.7602 18.9548 17.8219 18.7748 17.8351C18.5619 17.8508 18.3373 17.7695 17.888 17.6069L16.8745 17.2401C16.5778 17.1327 16.4295 17.0791 16.2971 17.068C16.167 17.0572 16.0884 17.064 15.9621 17.0969C15.8335 17.1303 15.6604 17.2292 15.3142 17.427C15.2877 17.4421 15.2611 17.457 15.2345 17.4718C14.8725 17.6719 14.6915 17.772 14.5936 17.8683C14.4976 17.963 14.4502 18.0295 14.3923 18.1513C14.3334 18.2753 14.3055 18.4367 14.2499 18.7594L14.0938 19.6637Z" fill="#1F1F1F"/>
</g>
</g>
</svg>
